<svg xmlns="http://www.w3.org/2000/svg" viewBox="0 0 453.98098 158.27001"><path fill="#1ca7d4" d="M59.38 20.07L20 42.83V94.9c0 23.94 19.43 43.37 43.37 43.37 7.9 0 15.36-2.14 21.7-5.84l32-18.46c12.56-6.58 21.2-19.73 21.2-34.95V24.58l-7.9-4.58-31.55 18.17v56.66c0 2.44-.22 4.8-.73 7.17-.46 2.3-1.2 4.5-2.08 6.65-.23.5-.52 1.1-.74 1.62-.96-.07-1.92-.22-2.8-.44-2-.44-4-1.03-5.92-1.85-1.85-.8-3.7-1.77-5.32-2.88-1.7-1.1-3.25-2.44-4.65-3.84-1.42-1.4-2.75-3.03-3.85-4.65-1.1-1.7-2.15-3.47-2.88-5.3-.82-1.93-1.4-3.93-1.85-5.92-.44-2.07-.67-4.2-.67-6.36V24.58zM77.1 127.63c-2.13.9-4.35 1.63-6.64 2.07-2.37.45-4.73.74-7.17.74s-4.8-.22-7.17-.74c-2.3-.44-4.5-1.18-6.65-2.07-2.07-.88-4.14-2-6-3.25-1.83-1.25-3.6-2.73-5.23-4.35s-3.03-3.4-4.36-5.25c-1.27-1.92-2.37-3.9-3.26-5.98-.9-2.15-1.62-4.36-2.07-6.65-.44-2.37-.74-4.73-.74-7.17V47.4l31.55-18.16V79.1c0 18.98 13.37 34.8 31.25 38.56-.67.8-1.4 1.63-2.22 2.44-1.62 1.62-3.4 3.03-5.24 4.36-1.92 1.18-3.9 2.3-6.05 3.17zm52.6-42.25c-.44 2-1.03 4-1.84 5.9-.82 1.86-1.78 3.7-2.88 5.33-1.1 1.7-2.44 3.26-3.84 4.66-1.4 1.4-3.03 2.73-4.66 3.84-1.7 1.1-3.47 2.14-5.32 2.88-1.92.82-3.9 1.4-5.9 1.85-.45.07-.82.15-1.26.22 1.77-4.73 2.73-9.82 2.73-15.22V42.68L130.37 29V78.9c-.07 2.3-.3 4.43-.67 6.5z"/><path fill="#2d3c49" d="M218.35 118.7c0 4.72-3.92 8.57-9.3 8.57s-9.17-3.84-9.17-8.57v-16.92h-2.8v17c0 6.05 4.72 11 12.03 11s12.13-4.95 12.13-11v-17h-2.8zm30.2-16.92h-8.93v27.7h8.87c8.26 0 13.8-5.1 13.8-13.9.08-8.63-5.47-13.8-13.74-13.8zm-.3 25.2h-5.82v-22.7h5.83c6.73 0 11.23 4 11.23 11.3.07 7.33-4.44 11.4-11.23 11.4zm79.35.36c-6.5 0-11.15-5.32-11.15-11.9 0-6.5 4.65-11.44 11.08-11.44 5.17 0 8.35 3.03 8.35 3.03l1.48-2s-3.33-3.55-9.9-3.55c-7.83 0-13.82 6.06-13.82 14.04s5.84 14.4 13.96 14.4c6.8 0 10.5-4.28 10.5-4.28l-1.56-1.92c0-.07-3.4 3.62-8.94 3.62zm28.45 2.14h2.8v-27.7h-2.8zm19.2-25.2h9.98v25.2h2.8v-25.2H398v-2.5h-22.67v2.5zm55.7-2.5l-8.8 12.7h-.06l-8.88-12.7h-3.18l10.64 15.73v11.9h2.8v-11.88l10.5-15.74zm-144.57 0l-11.23 27.7h2.96l2.96-7.38 12.5-2.6 3.98 9.9h2.95l-11.24-27.7h-2.88v.08zm-4 17.2l5.48-13.43h.07l4.66 11.3z"/><path stroke="#7a94a9" stroke-miterlimit="10" d="M197.3 82.5h236.4"/><g fill="#2d3c49"><path d="M210.22 29.46c-1.18 3.17-2.6 6.28-4.2 9.23v26.95h-2.97v-22.3c-1.1 1.55-2.22 2.95-3.4 4.2l-1.7-2.95c3.77-3.9 7.32-9.9 9.46-16.03zm10.2 11.3c-.75 9.97-2.96 19.2-10.35 24.6l-2.22-2.22c6.87-4.8 8.94-13.3 9.6-22.38h-9.3V37.8h9.45c.15-3.02.15-5.83.15-8.86h2.96c0 3.03-.07 5.84-.2 8.87h14.1v2.96h-14.2zm10.48 21.27c1.18 0 1.1-.96 1.26-6.28.8.45 2.2.96 2.95 1.33-.28 6.06-.95 7.7-3.9 7.7h-4.73c-3.18 0-4-.97-4-4.3V44.53h2.97v15.95c0 1.18.22 1.48 1.4 1.48h4.06v.07zm-.88-24.97c-1.1-1.7-3.48-3.98-5.47-5.9l2.5-1.7c1.93 1.77 4.3 4.28 5.48 5.9zM272.94 58.05c.8.5 1.84 1.33 3.17 2.2 2.67 1.78 6 2 10.65 2 4.8 0 10.57-.36 14.4-.8-.2.88-.58 2.06-.88 2.95-2.66.22-9.97.74-13.6.74-5.16 0-8.5-.52-11.3-2.37-1.62-1.1-2.95-2.58-3.84-2.58-1.33 0-3.32 2.5-5.46 5.45L264 62.92c2.14-2.5 4.2-4.36 5.98-5.02V47.2h-5.46v-2.97h8.42zm-2.15-19.58c-.9-2.14-3.03-5.4-4.95-7.83l2.58-1.26c2 2.3 4.14 5.54 5.1 7.6zm26.96 19.2c-2.22-3.25-6.5-8.12-10.5-12.26-1.54 5.4-4.13 10.13-9.67 13.1l-2.08-2.53c6.87-3.47 9.24-9.3 10.12-16.4H275.6v-2.95h10.34c.22-2.5.3-5.25.37-7.98h2.96c-.07 2.66-.15 5.47-.37 7.98h11.44v2.96H288.6c-.08.95-.3 1.7-.45 2.65 4.44 4.36 9.68 10.05 12.2 13.74zM359.67 43.34c-2.6 2.37-6.06 4.66-9.68 6.28v1.7h16.4v2.96H350v7.53c0 1.86-.53 2.67-2 3.12-1.48.5-3.62.66-7.32.66-.3-.9-.6-2-.8-2.96 3.1.15 5.3 0 6.12-.07.9-.07 1.03-.22 1.03-.8V54.2h-16.4v-2.95h16.4V48.3c2.37-.9 4.73-1.93 6.8-3.33h-16.55V42h19.95zm-25.27 0h-2.95v-7.97h6.72c-.74-1.55-2.07-3.7-3.4-5.25l2.5-1.25c1.5 1.7 3.12 4.06 3.78 5.6l-1.63.9h8.87c-.6-1.7-1.86-4.07-3.1-5.9l2.57-1.27c1.4 1.92 2.88 4.58 3.4 6.28l-2.07.88h6.65c1.48-1.84 3.18-4.65 4.07-6.57l2.73 1.1c-1.18 1.84-2.37 3.84-3.62 5.46h6.5v7.98h-2.96v-5.02h-28.2v5.02h.13zM408.28 55.53c-3.84 1.63-7.83 3.4-11 4.66l-1.04-2.97c1.33-.44 2.88-1.1 4.65-1.77V41.2h-3.78v-2.95h3.77v-9.3h2.95v9.3h3.76v2.95h-3.75v13.22l3.84-1.4zm24-13.07c-1.32 5.24-3.17 9.75-5.6 13.6.95 3.9 2.13 6.12 3.54 6.12.74 0 1.25-1.62 1.4-6.35.9.52 1.4.9 2.07 1.26-.45 6.04-1.27 7.96-3.93 7.96-2.3 0-3.98-2.36-5.24-6.2-1.92 2.5-4.3 4.43-6.87 6.2-.37-.6-1.48-1.7-2.14-2.06 3.17-1.93 5.9-4.36 8.05-7.47-1.03-4.8-1.7-11.22-1.92-18.24h-9.53v5.46h7.98v1.18c-.23 9.23-.3 12.48-1.1 13.52-.53.74-1.42 1.03-2.38 1.1-.73.08-2.2.08-3.62 0-.07-.8-.3-1.84-.5-2.65 1.4.15 2.35.23 2.87.23s.74-.08 1.03-.45c.45-.6.6-3.25.74-10.56h-4.87v1.85c0 5.7-.67 13.37-5.03 18.4-.44-.6-1.7-1.56-2.36-1.93 4.06-4.65 4.43-11.3 4.43-16.55V34.17h12.2c-.07-2 0-3.76 0-5.9h2.95c0 2.14-.07 3.9 0 5.9h5.47c-.96-1.33-2.88-3.32-4.58-4.65l2.07-1.26c1.78 1.33 3.7 3.25 4.66 4.66l-2 1.25h2.82v2.96h-8.35c.22 5.6.66 10.64 1.33 14.63 1.62-3.03 2.8-6.28 3.7-10.05z"/></g></svg>